<svg xmlns="http://www.w3.org/2000/svg" version="1.1" xmlns:xlink="http://www.w3.org/1999/xlink" width="512"
     height="512" x="0" y="0" viewBox="0 0 512 512" style="enable-background:new 0 0 512 512" xml:space="preserve"
     class=""><g><circle cx="286.226" cy="239.567" r="61.611" style="" fill="#fcc16d" data-original="#fcc16d"></circle><path
        d="M347.84 239.57c0 34.02-27.59 61.61-61.61 61.61-4.38 0-8.65-.46-12.77-1.33 23.64-9.79 40.26-33.11 40.26-60.29 0-27.16-16.6-50.46-40.23-60.28 4.11-.87 8.37-1.32 12.74-1.32 34.02 0 61.61 27.58 61.61 61.61z"
        style="" fill="#fca62f" data-original="#fca62f"></path><path
        d="m313.486 189.555 107.63 39.174c32.239 11.734 67.887-4.889 79.621-37.128 11.734-32.239-4.889-67.887-37.128-79.621l-107.63-39.174c-6.65-2.42-14.003 1.008-16.423 7.658l-33.728 92.668c-2.421 6.649 1.008 14.002 7.658 16.423z"
        style="" fill="#fcc16d" data-original="#fcc16d"></path><path
        d="M500.732 191.598c-11.736 32.245-47.375 48.864-79.62 37.128l-48.188-17.539c32.233 11.732 67.884-4.882 79.62-37.128 5.864-16.111 4.637-33.084-2.075-47.499-6.716-14.403-18.93-26.253-35.053-32.121l48.188 17.539c16.123 5.868 28.337 17.718 35.053 32.121 6.712 14.415 7.939 31.388 2.075 47.499z"
        style="" fill="#fca62f" data-original="#fca62f"></path><path
        d="m198.514 188.744-107.63 39.174c-32.239 11.734-67.887-4.889-79.621-37.128-11.734-32.239 4.889-67.887 37.128-79.621l107.63-39.174c6.65-2.42 14.003 1.008 16.423 7.658l33.728 92.668c2.421 6.649-1.008 14.002-7.658 16.423z"
        style="" fill="#c5d3dd" data-original="#c5d3dd"></path><path
        d="m172.448 79.651 33.728 92.666c2.419 6.646-1.012 14.004-7.658 16.423l-48.199 17.543c6.646-2.419 10.077-9.777 7.658-16.423l-33.728-92.666c-2.419-6.647-9.777-10.077-16.423-7.658l48.199-17.543c6.647-2.42 14.004 1.011 16.423 7.658z"
        style="" fill="#a0acb9" data-original="#a0acb9"></path><circle cx="196.387" cy="172.878" r="61.611" style=""
                                                                       fill="#fca62f" data-original="#fca62f"></circle><path
        d="M183.206 233.06a61.813 61.813 0 0 0 13.181 1.428c34.027 0 61.611-27.584 61.611-61.611s-27.584-61.611-61.611-61.611c-4.531 0-8.942.503-13.194 1.431 24.497 9.014 41.957 32.562 41.957 60.184 0 27.617-17.453 51.162-41.944 60.179z"
        style="" fill="#f98824" data-original="#f98824" class=""></path><circle cx="170.602" cy="339.842" r="61.611"
                                                                                style="" fill="#31a7fb"
                                                                                data-original="#31a7fb"></circle><path
        d="M232.208 339.843c0 34.02-27.58 61.61-61.61 61.61a61.31 61.31 0 0 1-19.01-3c24.73-8 42.6-31.22 42.6-58.61s-17.87-50.61-42.6-58.61c5.99-1.95 12.38-3 19.01-3 34.03 0 61.61 27.58 61.61 61.61z"
        style="" fill="#1c96f9" data-original="#1c96f9"></path><circle cx="328.828" cy="408.691" r="61.611" style=""
                                                                       fill="#fb3a82" data-original="#fb3a82"></circle><path
        d="M390.436 408.692c0 34.03-27.58 61.61-61.61 61.61a61.31 61.31 0 0 1-19.01-3c24.72-8 42.6-31.22 42.6-58.61s-17.88-50.61-42.6-58.61c5.99-1.95 12.38-3 19.01-3 34.03 0 61.61 27.58 61.61 61.61z"
        style="" fill="#fb1466" data-original="#fb1466"></path><path
        d="M438.507 289.093h-12.496v-12.496a9.443 9.443 0 0 0-9.443-9.443H404.9a9.443 9.443 0 0 0-9.443 9.443v12.496h-12.496a9.443 9.443 0 0 0-9.443 9.443v11.669a9.443 9.443 0 0 0 9.443 9.443h12.496v12.496a9.443 9.443 0 0 0 9.443 9.443h11.669a9.443 9.443 0 0 0 9.443-9.443v-12.496h12.496a9.443 9.443 0 0 0 9.443-9.443v-11.669c-.002-5.215-4.229-9.443-9.444-9.443zM299.552 49.68h-12.496V37.184a9.443 9.443 0 0 0-9.443-9.443h-11.669a9.443 9.443 0 0 0-9.443 9.443V49.68h-12.496a9.443 9.443 0 0 0-9.443 9.443v11.669a9.443 9.443 0 0 0 9.443 9.443h12.496V92.73a9.443 9.443 0 0 0 9.443 9.443h11.669a9.443 9.443 0 0 0 9.443-9.443V80.234h12.496a9.443 9.443 0 0 0 9.443-9.443V59.123a9.443 9.443 0 0 0-9.443-9.443zM116.436 431.766H103.94V419.27a9.443 9.443 0 0 0-9.443-9.443H82.829a9.443 9.443 0 0 0-9.443 9.443v12.496H60.891a9.443 9.443 0 0 0-9.443 9.443v11.669a9.443 9.443 0 0 0 9.443 9.443h12.496v12.496a9.443 9.443 0 0 0 9.443 9.443h11.669a9.443 9.443 0 0 0 9.443-9.443V462.32h12.496a9.443 9.443 0 0 0 9.443-9.443v-11.669c-.002-5.215-4.23-9.442-9.445-9.442z"
        style="" fill="#23f1a8" data-original="#23f1a8"></path><path
        d="M225.663 228.195a61.936 61.936 0 0 0-1.047 11.372c0 34.027 27.584 61.611 61.611 61.611a61.313 61.313 0 0 0 30.011-7.806M304.919 180.843a61.58 61.58 0 0 0-18.693-2.887c-10.633 0-20.638 2.694-29.367 7.436M339.608 270.313a61.299 61.299 0 0 0 8.229-30.746c0-16.987-6.875-32.369-17.995-43.514"
        style="stroke-width:15;stroke-linecap:round;stroke-linejoin:round;stroke-miterlimit:10;" fill="none"
        stroke="#000000" stroke-width="15" stroke-linecap="round" stroke-linejoin="round" stroke-miterlimit="10"
        data-original="#000000" class=""></path><path
        d="M286.651 267.034h-16.414V212.1h16.414c10.852 0 19.65 8.797 19.65 19.65v15.634c0 10.852-8.798 19.65-19.65 19.65zM313.486 189.555l107.63 39.174c32.239 11.734 67.887-4.889 79.621-37.128h0c11.734-32.239-4.889-67.887-37.128-79.621l-107.63-39.174c-6.65-2.42-14.003 1.008-16.423 7.658l-33.728 92.668c-2.421 6.649 1.008 14.002 7.658 16.423zM183.951 111.267l-11.507-31.614c-2.42-6.65-9.773-10.079-16.423-7.658L101.331 91.9M70.606 103.083l-22.215 8.086C16.152 122.903-.471 158.55 11.263 190.79h0c11.734 32.239 47.382 48.862 79.621 37.128l53.845-19.598"
        style="stroke-width:15;stroke-linecap:round;stroke-linejoin:round;stroke-miterlimit:10;" fill="none"
        stroke="#000000" stroke-width="15" stroke-linecap="round" stroke-linejoin="round" stroke-miterlimit="10"
        data-original="#000000" class=""></path><circle cx="196.387" cy="172.878" r="61.611"
                                                        style="stroke-width:15;stroke-linecap:round;stroke-linejoin:round;stroke-miterlimit:10;"
                                                        fill="none" stroke="#000000" stroke-width="15"
                                                        stroke-linecap="round" stroke-linejoin="round"
                                                        stroke-miterlimit="10" data-original="#000000"
                                                        class=""></circle><path
        d="M214.62 191.111c-10.07 10.07-26.396 10.07-36.466 0s-10.07-26.396 0-36.466 26.396-10.07 36.466 0"
        style="stroke-width:15;stroke-linecap:round;stroke-linejoin:round;stroke-miterlimit:10;" fill="none"
        stroke="#000000" stroke-width="15" stroke-linecap="round" stroke-linejoin="round" stroke-miterlimit="10"
        data-original="#000000" class=""></path><circle cx="170.602" cy="339.842" r="61.611"
                                                        style="stroke-width:15;stroke-linecap:round;stroke-linejoin:round;stroke-miterlimit:10;"
                                                        fill="none" stroke="#000000" stroke-width="15"
                                                        stroke-linecap="round" stroke-linejoin="round"
                                                        stroke-miterlimit="10" data-original="#000000"
                                                        class=""></circle><path
        d="M173.734 338.089h-19.121v-25.714h19.121c7.101 0 12.857 5.756 12.857 12.857h0c0 7.101-5.756 12.857-12.857 12.857zM176.068 367.308h-21.455v-29.219h21.455c8.069 0 14.61 6.541 14.61 14.61v0c-.001 8.068-6.542 14.609-14.61 14.609zM269.118 423.921c6.78 26.66 30.94 46.381 59.71 46.381 34.027 0 61.611-27.584 61.611-61.611s-27.584-61.611-61.611-61.611c-27.909 0-51.47 18.562-59.045 44.01"
        style="stroke-width:15;stroke-linecap:round;stroke-linejoin:round;stroke-miterlimit:10;" fill="none"
        stroke="#000000" stroke-width="15" stroke-linecap="round" stroke-linejoin="round" stroke-miterlimit="10"
        data-original="#000000" class=""></path><path
        d="m306.835 429.575 16.595-44.599a5.76 5.76 0 0 1 5.398-3.751h0a5.76 5.76 0 0 1 5.398 3.751l16.595 44.599M314.554 418.658h28.548M438.507 289.093h-12.496v-12.496a9.443 9.443 0 0 0-9.443-9.443H404.9a9.443 9.443 0 0 0-9.443 9.443v12.496h-12.496a9.443 9.443 0 0 0-9.443 9.443v11.669a9.443 9.443 0 0 0 9.443 9.443h12.496v12.496a9.443 9.443 0 0 0 9.443 9.443h11.669a9.443 9.443 0 0 0 9.443-9.443v-12.496h12.496a9.443 9.443 0 0 0 9.443-9.443v-11.669c-.002-5.215-4.229-9.443-9.444-9.443zM299.552 49.68h-12.496V37.184a9.443 9.443 0 0 0-9.443-9.443h-11.669a9.443 9.443 0 0 0-9.443 9.443V49.68h-12.496a9.443 9.443 0 0 0-9.443 9.443v11.669a9.443 9.443 0 0 0 9.443 9.443h12.496V92.73a9.443 9.443 0 0 0 9.443 9.443h11.669a9.443 9.443 0 0 0 9.443-9.443V80.234h12.496a9.443 9.443 0 0 0 9.443-9.443V59.123a9.443 9.443 0 0 0-9.443-9.443zM116.436 431.766H103.94V419.27a9.443 9.443 0 0 0-9.443-9.443H82.829a9.443 9.443 0 0 0-9.443 9.443v12.496H60.891a9.443 9.443 0 0 0-9.443 9.443v11.669a9.443 9.443 0 0 0 9.443 9.443h12.496v12.496a9.443 9.443 0 0 0 9.443 9.443h11.669a9.443 9.443 0 0 0 9.443-9.443V462.32h12.496a9.443 9.443 0 0 0 9.443-9.443v-11.669c-.002-5.215-4.23-9.442-9.445-9.442z"
        style="stroke-width:15;stroke-linecap:round;stroke-linejoin:round;stroke-miterlimit:10;" fill="none"
        stroke="#000000" stroke-width="15" stroke-linecap="round" stroke-linejoin="round" stroke-miterlimit="10"
        data-original="#000000" class=""></path></g></svg>
