<?xml version="1.0" standalone="no"?><!DOCTYPE svg PUBLIC "-//W3C//DTD SVG 1.1//EN" "http://www.w3.org/Graphics/SVG/1.1/DTD/svg11.dtd"><svg t="1702625215415" class="icon" viewBox="0 0 1110 1024" version="1.1" xmlns="http://www.w3.org/2000/svg" p-id="2931" xmlns:xlink="http://www.w3.org/1999/xlink" width="138.75" height="128"><path d="M978.432386 438.190185c71.349633 0 132.337862 57.655918 132.337862 130.168388 0 72.495114-60.979551 130.168388-132.337862 130.168389h-1.822357c-16.236337 146.231168-140.564504 260.336777-291.056517 260.336776h-38.139338c-13.433378 37.870323-49.602834 65.084194-92.02905 65.084195s-78.595673-27.213871-92.029051-65.084195H425.216735c-150.492013 0-274.820179-114.105609-291.056516-260.336776h-1.822357c-71.349633 0-132.337862-57.655918-132.337862-130.168389 0-72.495114 60.970873-130.168388 132.337862-130.168388h1.27565A423.71546 423.71546 0 0 1 262.50625 165.496089v-53.525241c0-70.559944 64.546165-123.625257 133.882526-109.757985L555.385124 34.017339 714.381471 2.22154c69.188837-13.832561 133.882526 39.050517 133.882527 109.757986v53.533919a423.732816 423.732816 0 0 1 128.901416 272.67674h1.266972z m-846.094524 195.252582v-130.168388c-36.455827 0-67.253667 29.799883-67.253668 65.084194 0 35.275633 30.797841 65.084194 67.253668 65.084194zM634.918009 84.487962a111.476208 111.476208 0 0 1 18.093406 60.823349c0 22.198049-6.612554 43.15516-18.093406 60.823349l92.228642 18.440522c27.257261 5.458394 53.577309-13.884628 56.232744-41.393548-0.390505-3.158753 0.017356-71.202108 0.017356-71.202108 0-28.992839-26.936179-51.807019-56.2501-45.940764L634.918009 84.487962zM555.385124 100.732977a46.973432 46.973432 0 0 0-32.542097 44.578334A46.973432 46.973432 0 0 0 555.385124 189.880967a46.973432 46.973432 0 0 0 32.542097-44.569656A46.973432 46.973432 0 0 0 555.385124 100.732977z m-227.79468 11.246549v61.68246c0.546707 3.150075 0.624808 6.352217 0.234303 9.519648a46.825908 46.825908 0 0 0 55.798849 41.393548l92.228643-18.4492a111.476208 111.476208 0 0 1-18.093406-60.814671c0-22.198049 6.612554-43.163838 18.093406-60.832027L383.623596 66.04744c-29.07094-5.814188-56.033152 16.479318-56.033152 45.940763zM555.385124 958.855061a32.576809 32.576809 0 0 0 32.542097-32.542098 32.576809 32.576809 0 0 0-32.542097-32.542097 32.576809 32.576809 0 0 0-32.542097 32.542097 32.576809 32.576809 0 0 0 32.542097 32.542098z m77.779951-91.45631c12.617656-11.185804 19.84634-24.784061 19.84634-38.703401 0-35.284311-44.708502-65.084194-97.626291-65.084194s-97.626291 29.799883-97.626291 65.084194c0 13.91934 7.228685 27.517597 19.84634 38.703401A97.522157 97.522157 0 0 1 555.385124 828.69535c31.709019 0 59.938204 15.203668 77.779951 38.703401zM360.132541 568.358573a32.542097 32.542097 0 1 1 0-65.084194 32.542097 32.542097 0 0 1 0 65.084194z m390.505165 0a32.542097 32.542097 0 1 1 0-65.084194 32.542097 32.542097 0 0 1 0 65.084194z m162.710486 97.626292v-195.252583a358.414319 358.414319 0 0 0-83.828442-230.102999 111.762578 111.762578 0 0 1-115.138279 47.76312L555.385124 256.596605l-158.996348 31.795798a111.7539 111.7539 0 0 1-115.146956-47.771798 358.431674 358.431674 0 0 0-83.819764 230.111677v195.252583c0 121.854967 96.185761 221.668088 216.626232 227.516987-13.763138-19.334345-21.373649-41.567105-21.37365-64.806502 0-66.58547 65.292464-130.168388 162.710486-130.168388 96.454776 0 162.710486 62.888687 162.710485 130.168388 0 23.248074-7.610512 45.472157-21.373649 64.806502 120.440471-5.8489 216.626232-105.66202 216.626232-227.516987z m65.084194-32.542098c36.455827 0 67.253667-29.808561 67.253668-65.084194 0-35.284311-30.797841-65.084194-67.253668-65.084194v130.168388z" fill="#4A90E2" p-id="2932"></path></svg>